<mxfile host="app.diagrams.net" modified="2021-06-09T04:08:38.718Z" agent="5.0 (Windows NT 10.0; Win64; x64) AppleWebKit/537.36 (KHTML, like Gecko) Chrome/91.0.4472.77 Safari/537.36" etag="BUiJZmf7YwkCL0wRR19y" version="14.6.13" type="github">
  <diagram id="C5RBs43oDa-KdzZeNtuy" name="Page-1">
    <mxGraphModel dx="1705" dy="455" grid="1" gridSize="10" guides="1" tooltips="1" connect="1" arrows="1" fold="1" page="1" pageScale="1" pageWidth="827" pageHeight="1169" math="0" shadow="0">
      <root>
        <mxCell id="WIyWlLk6GJQsqaUBKTNV-0" />
        <mxCell id="WIyWlLk6GJQsqaUBKTNV-1" parent="WIyWlLk6GJQsqaUBKTNV-0" />
        <mxCell id="0jcatp8Q0D0t4g7Fgnds-0" value="NetworkDataSource" style="swimlane;fontStyle=1;align=center;verticalAlign=top;childLayout=stackLayout;horizontal=1;startSize=26;horizontalStack=0;resizeParent=1;resizeParentMax=0;resizeLast=0;collapsible=1;marginBottom=0;fillColor=#C9C9C9;fontSize=12;whiteSpace=wrap;" parent="WIyWlLk6GJQsqaUBKTNV-1" vertex="1">
          <mxGeometry x="-240" y="40" width="360" height="500" as="geometry" />
        </mxCell>
        <mxCell id="0jcatp8Q0D0t4g7Fgnds-1" value="- HOSTNAME static final string" style="text;strokeColor=none;fillColor=none;align=left;verticalAlign=top;spacingLeft=4;spacingRight=4;overflow=hidden;rotatable=0;points=[[0,0.5],[1,0.5]];portConstraint=eastwest;fontSize=12;whiteSpace=wrap;" parent="0jcatp8Q0D0t4g7Fgnds-0" vertex="1">
          <mxGeometry y="26" width="360" height="24" as="geometry" />
        </mxCell>
        <mxCell id="0jcatp8Q0D0t4g7Fgnds-6" value="- PORT static final int" style="text;strokeColor=none;fillColor=none;align=left;verticalAlign=top;spacingLeft=4;spacingRight=4;overflow=hidden;rotatable=0;points=[[0,0.5],[1,0.5]];portConstraint=eastwest;fontSize=12;whiteSpace=wrap;" parent="0jcatp8Q0D0t4g7Fgnds-0" vertex="1">
          <mxGeometry y="50" width="360" height="20" as="geometry" />
        </mxCell>
        <mxCell id="0jcatp8Q0D0t4g7Fgnds-7" value="+ SELECT static final string" style="text;strokeColor=none;fillColor=none;align=left;verticalAlign=top;spacingLeft=4;spacingRight=4;overflow=hidden;rotatable=0;points=[[0,0.5],[1,0.5]];portConstraint=eastwest;fontSize=12;whiteSpace=wrap;" parent="0jcatp8Q0D0t4g7Fgnds-0" vertex="1">
          <mxGeometry y="70" width="360" height="20" as="geometry" />
        </mxCell>
        <mxCell id="0jcatp8Q0D0t4g7Fgnds-8" value="+ INSERT static final string" style="text;strokeColor=none;fillColor=none;align=left;verticalAlign=top;spacingLeft=4;spacingRight=4;overflow=hidden;rotatable=0;points=[[0,0.5],[1,0.5]];portConstraint=eastwest;fontSize=12;whiteSpace=wrap;" parent="0jcatp8Q0D0t4g7Fgnds-0" vertex="1">
          <mxGeometry y="90" width="360" height="20" as="geometry" />
        </mxCell>
        <mxCell id="0jcatp8Q0D0t4g7Fgnds-111" value="+ UPDATE static final string" style="text;strokeColor=none;fillColor=none;align=left;verticalAlign=top;spacingLeft=4;spacingRight=4;overflow=hidden;rotatable=0;points=[[0,0.5],[1,0.5]];portConstraint=eastwest;fontSize=12;whiteSpace=wrap;" parent="0jcatp8Q0D0t4g7Fgnds-0" vertex="1">
          <mxGeometry y="110" width="360" height="20" as="geometry" />
        </mxCell>
        <mxCell id="0jcatp8Q0D0t4g7Fgnds-112" value="+ DELETE static final string" style="text;strokeColor=none;fillColor=none;align=left;verticalAlign=top;spacingLeft=4;spacingRight=4;overflow=hidden;rotatable=0;points=[[0,0.5],[1,0.5]];portConstraint=eastwest;fontSize=12;whiteSpace=wrap;" parent="0jcatp8Q0D0t4g7Fgnds-0" vertex="1">
          <mxGeometry y="130" width="360" height="30" as="geometry" />
        </mxCell>
        <mxCell id="0jcatp8Q0D0t4g7Fgnds-2" value="" style="line;strokeWidth=1;fillColor=none;align=left;verticalAlign=middle;spacingTop=-1;spacingLeft=3;spacingRight=3;rotatable=0;labelPosition=right;points=[];portConstraint=eastwest;fontSize=12;whiteSpace=wrap;" parent="0jcatp8Q0D0t4g7Fgnds-0" vertex="1">
          <mxGeometry y="160" width="360" height="8" as="geometry" />
        </mxCell>
        <mxCell id="0jcatp8Q0D0t4g7Fgnds-3" value="-select(string table, string filter): HashTable(Object, DataObject)" style="text;strokeColor=none;fillColor=none;align=left;verticalAlign=top;spacingLeft=4;spacingRight=4;overflow=hidden;rotatable=0;points=[[0,0.5],[1,0.5]];portConstraint=eastwest;whiteSpace=wrap;fontSize=12;" parent="0jcatp8Q0D0t4g7Fgnds-0" vertex="1">
          <mxGeometry y="168" width="360" height="22" as="geometry" />
        </mxCell>
        <mxCell id="0jcatp8Q0D0t4g7Fgnds-19" value="-selectByValue(string table, string column, Object value): HashTable(Object, DataObject)" style="text;strokeColor=none;fillColor=none;align=left;verticalAlign=top;spacingLeft=4;spacingRight=4;overflow=hidden;rotatable=0;points=[[0,0.5],[1,0.5]];portConstraint=eastwest;whiteSpace=wrap;fontSize=12;" parent="0jcatp8Q0D0t4g7Fgnds-0" vertex="1">
          <mxGeometry y="190" width="360" height="30" as="geometry" />
        </mxCell>
        <mxCell id="0jcatp8Q0D0t4g7Fgnds-18" value="-selectByKey(string table, Object key): DataObject" style="text;strokeColor=none;fillColor=none;align=left;verticalAlign=top;spacingLeft=4;spacingRight=4;overflow=hidden;rotatable=0;points=[[0,0.5],[1,0.5]];portConstraint=eastwest;whiteSpace=wrap;fontSize=12;" parent="0jcatp8Q0D0t4g7Fgnds-0" vertex="1">
          <mxGeometry y="220" width="360" height="22" as="geometry" />
        </mxCell>
        <mxCell id="0jcatp8Q0D0t4g7Fgnds-13" value="-insert(string table, DataObject record): int" style="text;strokeColor=none;fillColor=none;align=left;verticalAlign=top;spacingLeft=4;spacingRight=4;overflow=hidden;rotatable=0;points=[[0,0.5],[1,0.5]];portConstraint=eastwest;whiteSpace=wrap;fontSize=12;" parent="0jcatp8Q0D0t4g7Fgnds-0" vertex="1">
          <mxGeometry y="242" width="360" height="20" as="geometry" />
        </mxCell>
        <mxCell id="0jcatp8Q0D0t4g7Fgnds-10" value="-insertUpdateOnDupKey(string table, DataObject record): int&amp;nbsp;" style="text;strokeColor=none;fillColor=none;align=left;verticalAlign=top;spacingLeft=4;spacingRight=4;overflow=hidden;rotatable=0;points=[[0,0.5],[1,0.5]];portConstraint=eastwest;whiteSpace=wrap;fontSize=12;" parent="0jcatp8Q0D0t4g7Fgnds-0" vertex="1">
          <mxGeometry y="262" width="360" height="18" as="geometry" />
        </mxCell>
        <mxCell id="0jcatp8Q0D0t4g7Fgnds-11" value="-update(string table, DataObject record): int" style="text;strokeColor=none;fillColor=none;align=left;verticalAlign=top;spacingLeft=4;spacingRight=4;overflow=hidden;rotatable=0;points=[[0,0.5],[1,0.5]];portConstraint=eastwest;whiteSpace=wrap;fontSize=12;" parent="0jcatp8Q0D0t4g7Fgnds-0" vertex="1">
          <mxGeometry y="280" width="360" height="20" as="geometry" />
        </mxCell>
        <mxCell id="0jcatp8Q0D0t4g7Fgnds-16" value="-delete(string table, string filter): int" style="text;strokeColor=none;fillColor=none;align=left;verticalAlign=top;spacingLeft=4;spacingRight=4;overflow=hidden;rotatable=0;points=[[0,0.5],[1,0.5]];portConstraint=eastwest;whiteSpace=wrap;fontSize=12;" parent="0jcatp8Q0D0t4g7Fgnds-0" vertex="1">
          <mxGeometry y="300" width="360" height="20" as="geometry" />
        </mxCell>
        <mxCell id="0jcatp8Q0D0t4g7Fgnds-17" value="-deleteByKey(string table, Object key): int" style="text;strokeColor=none;fillColor=none;align=left;verticalAlign=top;spacingLeft=4;spacingRight=4;overflow=hidden;rotatable=0;points=[[0,0.5],[1,0.5]];portConstraint=eastwest;whiteSpace=wrap;fontSize=12;" parent="0jcatp8Q0D0t4g7Fgnds-0" vertex="1">
          <mxGeometry y="320" width="360" height="20" as="geometry" />
        </mxCell>
        <mxCell id="0jcatp8Q0D0t4g7Fgnds-14" value="Public methods are outlined in a table for compactness&#39; sake&#xa;Signatures for all public methods with more than one parameter:&#xa;&#xa;+inventoryRecordByKeys(string unit, int asset)&#xa;+deleteInventoryRecord(string unit, int asset)&#xa;+sellOrdersByUser(string username, bool resolved)&#xa;+sellOrdersByAsset(int assetID, bool resolved)&#xa;+sellOrdersPlacedBetween(datetime start, datetime end, bool resolved)&#xa;+sellOrdersResolvedBetween(datetime start, datetime end)" style="text;strokeColor=none;fillColor=none;align=left;verticalAlign=top;spacingLeft=4;spacingRight=4;overflow=hidden;rotatable=0;points=[[0,0.5],[1,0.5]];portConstraint=eastwest;whiteSpace=wrap;fontSize=12;" parent="0jcatp8Q0D0t4g7Fgnds-0" vertex="1">
          <mxGeometry y="340" width="360" height="160" as="geometry" />
        </mxCell>
        <mxCell id="0jcatp8Q0D0t4g7Fgnds-20" value="" style="shape=table;html=1;whiteSpace=wrap;startSize=0;container=1;collapsible=0;childLayout=tableLayout;fontSize=10;" parent="WIyWlLk6GJQsqaUBKTNV-1" vertex="1">
          <mxGeometry x="-180" y="609" width="660" height="280" as="geometry" />
        </mxCell>
        <mxCell id="0jcatp8Q0D0t4g7Fgnds-21" value="" style="shape=partialRectangle;html=1;whiteSpace=wrap;collapsible=0;dropTarget=0;pointerEvents=0;fillColor=none;top=0;left=0;bottom=0;right=0;points=[[0,0.5],[1,0.5]];portConstraint=eastwest;fontSize=10;" parent="0jcatp8Q0D0t4g7Fgnds-20" vertex="1">
          <mxGeometry width="660" height="22" as="geometry" />
        </mxCell>
        <mxCell id="0jcatp8Q0D0t4g7Fgnds-42" value="Helper called" style="shape=partialRectangle;html=1;whiteSpace=wrap;connectable=0;top=0;left=0;bottom=0;right=0;overflow=hidden;strokeWidth=1;perimeterSpacing=0;fillColor=#C9C9C9;fontSize=10;" parent="0jcatp8Q0D0t4g7Fgnds-21" vertex="1">
          <mxGeometry width="90" height="22" as="geometry" />
        </mxCell>
        <mxCell id="0jcatp8Q0D0t4g7Fgnds-22" value="User" style="shape=partialRectangle;html=1;whiteSpace=wrap;connectable=0;top=0;left=0;bottom=0;right=0;overflow=hidden;fillColor=#C9C9C9;fontSize=10;" parent="0jcatp8Q0D0t4g7Fgnds-21" vertex="1">
          <mxGeometry x="90" width="70" height="22" as="geometry" />
        </mxCell>
        <mxCell id="0jcatp8Q0D0t4g7Fgnds-23" value="OrgUnit" style="shape=partialRectangle;html=1;whiteSpace=wrap;connectable=0;top=0;left=0;bottom=0;right=0;overflow=hidden;fillColor=#C9C9C9;fontSize=10;" parent="0jcatp8Q0D0t4g7Fgnds-21" vertex="1">
          <mxGeometry x="160" width="60" height="22" as="geometry" />
        </mxCell>
        <mxCell id="0jcatp8Q0D0t4g7Fgnds-24" value="AssetInfo" style="shape=partialRectangle;html=1;whiteSpace=wrap;connectable=0;top=0;left=0;bottom=0;right=0;overflow=hidden;fillColor=#C9C9C9;fontSize=10;" parent="0jcatp8Q0D0t4g7Fgnds-21" vertex="1">
          <mxGeometry x="220" width="70" height="22" as="geometry" />
        </mxCell>
        <mxCell id="0jcatp8Q0D0t4g7Fgnds-33" value="Inventories" style="shape=partialRectangle;html=1;whiteSpace=wrap;connectable=0;top=0;left=0;bottom=0;right=0;overflow=hidden;fillColor=#C9C9C9;fontSize=10;" parent="0jcatp8Q0D0t4g7Fgnds-21" vertex="1">
          <mxGeometry x="290" width="120" height="22" as="geometry" />
        </mxCell>
        <mxCell id="0jcatp8Q0D0t4g7Fgnds-36" value="SellOrder" style="shape=partialRectangle;html=1;whiteSpace=wrap;connectable=0;top=0;left=0;bottom=0;right=0;overflow=hidden;fillColor=#C9C9C9;fontSize=10;" parent="0jcatp8Q0D0t4g7Fgnds-21" vertex="1">
          <mxGeometry x="410" width="160" height="22" as="geometry" />
        </mxCell>
        <mxCell id="0jcatp8Q0D0t4g7Fgnds-39" value="BuyOrder" style="shape=partialRectangle;html=1;whiteSpace=wrap;connectable=0;top=0;left=0;bottom=0;right=0;overflow=hidden;fillColor=#C9C9C9;fontSize=10;" parent="0jcatp8Q0D0t4g7Fgnds-21" vertex="1">
          <mxGeometry x="570" width="90" height="22" as="geometry" />
        </mxCell>
        <mxCell id="0jcatp8Q0D0t4g7Fgnds-25" value="" style="shape=partialRectangle;html=1;whiteSpace=wrap;collapsible=0;dropTarget=0;pointerEvents=0;fillColor=none;top=0;left=0;bottom=0;right=0;points=[[0,0.5],[1,0.5]];portConstraint=eastwest;fontSize=10;" parent="0jcatp8Q0D0t4g7Fgnds-20" vertex="1">
          <mxGeometry y="22" width="660" height="48" as="geometry" />
        </mxCell>
        <mxCell id="0jcatp8Q0D0t4g7Fgnds-43" value="Select with arbitrary filter" style="shape=partialRectangle;html=1;whiteSpace=wrap;connectable=0;top=0;left=0;bottom=0;right=0;overflow=hidden;strokeWidth=1;perimeterSpacing=0;fillColor=#C9C9C9;fontSize=10;" parent="0jcatp8Q0D0t4g7Fgnds-25" vertex="1">
          <mxGeometry width="90" height="48" as="geometry" />
        </mxCell>
        <mxCell id="0jcatp8Q0D0t4g7Fgnds-26" value="allUsers()&lt;br style=&quot;font-size: 10px;&quot;&gt;to get full table" style="shape=partialRectangle;html=1;whiteSpace=wrap;connectable=0;fillColor=none;top=0;left=0;bottom=0;right=0;overflow=hidden;fontSize=10;" parent="0jcatp8Q0D0t4g7Fgnds-25" vertex="1">
          <mxGeometry x="90" width="70" height="48" as="geometry" />
        </mxCell>
        <mxCell id="0jcatp8Q0D0t4g7Fgnds-27" value="allOrgUnits()" style="shape=partialRectangle;html=1;whiteSpace=wrap;connectable=0;fillColor=none;top=0;left=0;bottom=0;right=0;overflow=hidden;fontSize=10;" parent="0jcatp8Q0D0t4g7Fgnds-25" vertex="1">
          <mxGeometry x="160" width="60" height="48" as="geometry" />
        </mxCell>
        <mxCell id="0jcatp8Q0D0t4g7Fgnds-28" value="allAssets()" style="shape=partialRectangle;html=1;whiteSpace=wrap;connectable=0;fillColor=none;top=0;left=0;bottom=0;right=0;overflow=hidden;fontSize=10;" parent="0jcatp8Q0D0t4g7Fgnds-25" vertex="1">
          <mxGeometry x="220" width="70" height="48" as="geometry" />
        </mxCell>
        <mxCell id="0jcatp8Q0D0t4g7Fgnds-34" value="inventoryList(), inventoryRecordByKeys" style="shape=partialRectangle;html=1;whiteSpace=wrap;connectable=0;fillColor=none;top=0;left=0;bottom=0;right=0;overflow=hidden;fontSize=10;" parent="0jcatp8Q0D0t4g7Fgnds-25" vertex="1">
          <mxGeometry x="290" width="120" height="48" as="geometry" />
        </mxCell>
        <mxCell id="0jcatp8Q0D0t4g7Fgnds-37" value="See class;&amp;nbsp;&lt;span style=&quot;text-align: left; font-size: 10px;&quot;&gt;&quot;resolved&quot; flag encodes whether to allow just resolved orders (true), just unresolved ones (false), or both (null)&lt;/span&gt;" style="shape=partialRectangle;html=1;connectable=0;fillColor=none;top=0;left=0;bottom=0;right=0;overflow=hidden;whiteSpace=wrap;fontSize=10;" parent="0jcatp8Q0D0t4g7Fgnds-25" vertex="1">
          <mxGeometry x="410" width="160" height="48" as="geometry" />
        </mxCell>
        <mxCell id="0jcatp8Q0D0t4g7Fgnds-40" value="Yes; all the same methods as SellOrder" style="shape=partialRectangle;html=1;whiteSpace=wrap;connectable=0;fillColor=none;top=0;left=0;bottom=0;right=0;overflow=hidden;fontSize=10;" parent="0jcatp8Q0D0t4g7Fgnds-25" vertex="1">
          <mxGeometry x="570" width="90" height="48" as="geometry" />
        </mxCell>
        <mxCell id="0jcatp8Q0D0t4g7Fgnds-77" style="shape=partialRectangle;html=1;whiteSpace=wrap;collapsible=0;dropTarget=0;pointerEvents=0;fillColor=none;top=0;left=0;bottom=0;right=0;points=[[0,0.5],[1,0.5]];portConstraint=eastwest;fontSize=10;" parent="0jcatp8Q0D0t4g7Fgnds-20" vertex="1">
          <mxGeometry y="70" width="660" height="40" as="geometry" />
        </mxCell>
        <mxCell id="0jcatp8Q0D0t4g7Fgnds-78" value="Select by column value" style="shape=partialRectangle;html=1;whiteSpace=wrap;connectable=0;top=0;left=0;bottom=0;right=0;overflow=hidden;strokeWidth=1;perimeterSpacing=0;fillColor=#C9C9C9;fontSize=10;" parent="0jcatp8Q0D0t4g7Fgnds-77" vertex="1">
          <mxGeometry width="90" height="40" as="geometry" />
        </mxCell>
        <mxCell id="0jcatp8Q0D0t4g7Fgnds-79" value="usersBy&lt;br style=&quot;font-size: 10px;&quot;&gt;OrgUnit(&lt;br style=&quot;font-size: 10px;&quot;&gt;string unit)" style="shape=partialRectangle;html=1;whiteSpace=wrap;connectable=0;fillColor=none;top=0;left=0;bottom=0;right=0;overflow=hidden;fontSize=10;" parent="0jcatp8Q0D0t4g7Fgnds-77" vertex="1">
          <mxGeometry x="90" width="70" height="40" as="geometry" />
        </mxCell>
        <mxCell id="0jcatp8Q0D0t4g7Fgnds-80" value="None" style="shape=partialRectangle;html=1;whiteSpace=wrap;connectable=0;fillColor=none;top=0;left=0;bottom=0;right=0;overflow=hidden;fontSize=10;" parent="0jcatp8Q0D0t4g7Fgnds-77" vertex="1">
          <mxGeometry x="160" width="60" height="40" as="geometry" />
        </mxCell>
        <mxCell id="0jcatp8Q0D0t4g7Fgnds-81" value="No" style="shape=partialRectangle;html=1;whiteSpace=wrap;connectable=0;fillColor=none;top=0;left=0;bottom=0;right=0;overflow=hidden;fontSize=10;" parent="0jcatp8Q0D0t4g7Fgnds-77" vertex="1">
          <mxGeometry x="220" width="70" height="40" as="geometry" />
        </mxCell>
        <mxCell id="0jcatp8Q0D0t4g7Fgnds-82" value="&amp;nbsp;inventoriesByUnit(string),&amp;nbsp; inventoriesByAsset(int)" style="shape=partialRectangle;html=1;whiteSpace=wrap;connectable=0;fillColor=none;top=0;left=0;bottom=0;right=0;overflow=hidden;fontSize=10;" parent="0jcatp8Q0D0t4g7Fgnds-77" vertex="1">
          <mxGeometry x="290" width="120" height="40" as="geometry" />
        </mxCell>
        <mxCell id="0jcatp8Q0D0t4g7Fgnds-83" value="None" style="shape=partialRectangle;html=1;whiteSpace=wrap;connectable=0;fillColor=none;top=0;left=0;bottom=0;right=0;overflow=hidden;fontSize=10;" parent="0jcatp8Q0D0t4g7Fgnds-77" vertex="1">
          <mxGeometry x="410" width="160" height="40" as="geometry" />
        </mxCell>
        <mxCell id="0jcatp8Q0D0t4g7Fgnds-84" value="buyOrdersBy&lt;br style=&quot;font-size: 10px;&quot;&gt;BoughtFrom(&lt;br style=&quot;font-size: 10px;&quot;&gt;int SellOrderID)" style="shape=partialRectangle;html=1;whiteSpace=wrap;connectable=0;fillColor=none;top=0;left=0;bottom=0;right=0;overflow=hidden;fontSize=10;" parent="0jcatp8Q0D0t4g7Fgnds-77" vertex="1">
          <mxGeometry x="570" width="90" height="40" as="geometry" />
        </mxCell>
        <mxCell id="0jcatp8Q0D0t4g7Fgnds-85" style="shape=partialRectangle;html=1;whiteSpace=wrap;collapsible=0;dropTarget=0;pointerEvents=0;fillColor=none;top=0;left=0;bottom=0;right=0;points=[[0,0.5],[1,0.5]];portConstraint=eastwest;fontSize=10;" parent="0jcatp8Q0D0t4g7Fgnds-20" vertex="1">
          <mxGeometry y="110" width="660" height="30" as="geometry" />
        </mxCell>
        <mxCell id="0jcatp8Q0D0t4g7Fgnds-86" value="Select by key" style="shape=partialRectangle;html=1;whiteSpace=wrap;connectable=0;top=0;left=0;bottom=0;right=0;overflow=hidden;strokeWidth=1;perimeterSpacing=0;fillColor=#C9C9C9;fontSize=10;" parent="0jcatp8Q0D0t4g7Fgnds-85" vertex="1">
          <mxGeometry width="90" height="30" as="geometry" />
        </mxCell>
        <mxCell id="0jcatp8Q0D0t4g7Fgnds-87" value="userByKey(&lt;br style=&quot;font-size: 10px;&quot;&gt;string key)" style="shape=partialRectangle;html=1;whiteSpace=wrap;connectable=0;fillColor=none;top=0;left=0;bottom=0;right=0;overflow=hidden;fontSize=10;" parent="0jcatp8Q0D0t4g7Fgnds-85" vertex="1">
          <mxGeometry x="90" width="70" height="30" as="geometry" />
        </mxCell>
        <mxCell id="0jcatp8Q0D0t4g7Fgnds-88" value="unitByKey(&lt;br style=&quot;font-size: 10px;&quot;&gt;string key)" style="shape=partialRectangle;html=1;whiteSpace=wrap;connectable=0;fillColor=none;top=0;left=0;bottom=0;right=0;overflow=hidden;fontSize=10;" parent="0jcatp8Q0D0t4g7Fgnds-85" vertex="1">
          <mxGeometry x="160" width="60" height="30" as="geometry" />
        </mxCell>
        <mxCell id="0jcatp8Q0D0t4g7Fgnds-89" value="assetByKey(&lt;br style=&quot;font-size: 10px;&quot;&gt;int key)" style="shape=partialRectangle;html=1;whiteSpace=wrap;connectable=0;fillColor=none;top=0;left=0;bottom=0;right=0;overflow=hidden;fontSize=10;" parent="0jcatp8Q0D0t4g7Fgnds-85" vertex="1">
          <mxGeometry x="220" width="70" height="30" as="geometry" />
        </mxCell>
        <mxCell id="0jcatp8Q0D0t4g7Fgnds-90" value="None" style="shape=partialRectangle;html=1;whiteSpace=wrap;connectable=0;fillColor=none;top=0;left=0;bottom=0;right=0;overflow=hidden;fontSize=10;" parent="0jcatp8Q0D0t4g7Fgnds-85" vertex="1">
          <mxGeometry x="290" width="120" height="30" as="geometry" />
        </mxCell>
        <mxCell id="0jcatp8Q0D0t4g7Fgnds-91" value="sellOrderByKey(int key)" style="shape=partialRectangle;html=1;whiteSpace=wrap;connectable=0;fillColor=none;top=0;left=0;bottom=0;right=0;overflow=hidden;fontSize=10;" parent="0jcatp8Q0D0t4g7Fgnds-85" vertex="1">
          <mxGeometry x="410" width="160" height="30" as="geometry" />
        </mxCell>
        <mxCell id="0jcatp8Q0D0t4g7Fgnds-92" value="buyOrderByKey(&lt;br style=&quot;font-size: 10px;&quot;&gt;int key)" style="shape=partialRectangle;html=1;whiteSpace=wrap;connectable=0;fillColor=none;top=0;left=0;bottom=0;right=0;overflow=hidden;fontSize=10;" parent="0jcatp8Q0D0t4g7Fgnds-85" vertex="1">
          <mxGeometry x="570" width="90" height="30" as="geometry" />
        </mxCell>
        <mxCell id="0jcatp8Q0D0t4g7Fgnds-69" style="shape=partialRectangle;html=1;whiteSpace=wrap;collapsible=0;dropTarget=0;pointerEvents=0;fillColor=none;top=0;left=0;bottom=0;right=0;points=[[0,0.5],[1,0.5]];portConstraint=eastwest;fontSize=10;" parent="0jcatp8Q0D0t4g7Fgnds-20" vertex="1">
          <mxGeometry y="140" width="660" height="30" as="geometry" />
        </mxCell>
        <mxCell id="0jcatp8Q0D0t4g7Fgnds-70" value="Insert" style="shape=partialRectangle;html=1;whiteSpace=wrap;connectable=0;top=0;left=0;bottom=0;right=0;overflow=hidden;strokeWidth=1;perimeterSpacing=0;fillColor=#C9C9C9;fontSize=10;" parent="0jcatp8Q0D0t4g7Fgnds-69" vertex="1">
          <mxGeometry width="90" height="30" as="geometry" />
        </mxCell>
        <mxCell id="0jcatp8Q0D0t4g7Fgnds-71" value="insertUser(&lt;br style=&quot;font-size: 10px;&quot;&gt;User u)" style="shape=partialRectangle;html=1;whiteSpace=wrap;connectable=0;fillColor=none;top=0;left=0;bottom=0;right=0;overflow=hidden;fontSize=10;" parent="0jcatp8Q0D0t4g7Fgnds-69" vertex="1">
          <mxGeometry x="90" width="70" height="30" as="geometry" />
        </mxCell>
        <mxCell id="0jcatp8Q0D0t4g7Fgnds-72" value="insertUnit(&lt;br style=&quot;font-size: 10px;&quot;&gt;OrgUnit u)" style="shape=partialRectangle;html=1;whiteSpace=wrap;connectable=0;fillColor=none;top=0;left=0;bottom=0;right=0;overflow=hidden;fontSize=10;" parent="0jcatp8Q0D0t4g7Fgnds-69" vertex="1">
          <mxGeometry x="160" width="60" height="30" as="geometry" />
        </mxCell>
        <mxCell id="0jcatp8Q0D0t4g7Fgnds-73" value="insertAsset(&lt;br style=&quot;font-size: 10px;&quot;&gt;Asset a)" style="shape=partialRectangle;html=1;whiteSpace=wrap;connectable=0;fillColor=none;top=0;left=0;bottom=0;right=0;overflow=hidden;fontSize=10;" parent="0jcatp8Q0D0t4g7Fgnds-69" vertex="1">
          <mxGeometry x="220" width="70" height="30" as="geometry" />
        </mxCell>
        <mxCell id="0jcatp8Q0D0t4g7Fgnds-74" value="None" style="shape=partialRectangle;html=1;whiteSpace=wrap;connectable=0;fillColor=none;top=0;left=0;bottom=0;right=0;overflow=hidden;fontSize=10;" parent="0jcatp8Q0D0t4g7Fgnds-69" vertex="1">
          <mxGeometry x="290" width="120" height="30" as="geometry" />
        </mxCell>
        <mxCell id="0jcatp8Q0D0t4g7Fgnds-75" value="insertSellOrder(SellOrder s)" style="shape=partialRectangle;html=1;whiteSpace=wrap;connectable=0;fillColor=none;top=0;left=0;bottom=0;right=0;overflow=hidden;fontSize=10;" parent="0jcatp8Q0D0t4g7Fgnds-69" vertex="1">
          <mxGeometry x="410" width="160" height="30" as="geometry" />
        </mxCell>
        <mxCell id="0jcatp8Q0D0t4g7Fgnds-76" value="insertBuyOrder(&lt;br style=&quot;font-size: 10px;&quot;&gt;BuyOrder b)" style="shape=partialRectangle;html=1;whiteSpace=wrap;connectable=0;fillColor=none;top=0;left=0;bottom=0;right=0;overflow=hidden;fontSize=10;" parent="0jcatp8Q0D0t4g7Fgnds-69" vertex="1">
          <mxGeometry x="570" width="90" height="30" as="geometry" />
        </mxCell>
        <mxCell id="0jcatp8Q0D0t4g7Fgnds-95" style="shape=partialRectangle;html=1;whiteSpace=wrap;collapsible=0;dropTarget=0;pointerEvents=0;fillColor=none;top=0;left=0;bottom=0;right=0;points=[[0,0.5],[1,0.5]];portConstraint=eastwest;fontSize=10;" parent="0jcatp8Q0D0t4g7Fgnds-20" vertex="1">
          <mxGeometry y="170" width="660" height="30" as="geometry" />
        </mxCell>
        <mxCell id="0jcatp8Q0D0t4g7Fgnds-96" value="Insert, Update On Duplicate Key" style="shape=partialRectangle;html=1;whiteSpace=wrap;connectable=0;top=0;left=0;bottom=0;right=0;overflow=hidden;strokeWidth=1;perimeterSpacing=0;fillColor=#C9C9C9;fontSize=10;" parent="0jcatp8Q0D0t4g7Fgnds-95" vertex="1">
          <mxGeometry width="90" height="30" as="geometry" />
        </mxCell>
        <mxCell id="0jcatp8Q0D0t4g7Fgnds-97" value="None" style="shape=partialRectangle;html=1;whiteSpace=wrap;connectable=0;fillColor=none;top=0;left=0;bottom=0;right=0;overflow=hidden;fontSize=10;" parent="0jcatp8Q0D0t4g7Fgnds-95" vertex="1">
          <mxGeometry x="90" width="70" height="30" as="geometry" />
        </mxCell>
        <mxCell id="0jcatp8Q0D0t4g7Fgnds-98" value="None" style="shape=partialRectangle;html=1;whiteSpace=wrap;connectable=0;fillColor=none;top=0;left=0;bottom=0;right=0;overflow=hidden;fontSize=10;" parent="0jcatp8Q0D0t4g7Fgnds-95" vertex="1">
          <mxGeometry x="160" width="60" height="30" as="geometry" />
        </mxCell>
        <mxCell id="0jcatp8Q0D0t4g7Fgnds-99" value="None" style="shape=partialRectangle;html=1;whiteSpace=wrap;connectable=0;fillColor=none;top=0;left=0;bottom=0;right=0;overflow=hidden;fontSize=10;" parent="0jcatp8Q0D0t4g7Fgnds-95" vertex="1">
          <mxGeometry x="220" width="70" height="30" as="geometry" />
        </mxCell>
        <mxCell id="0jcatp8Q0D0t4g7Fgnds-100" value="insertOrUpdateInventory(&lt;br style=&quot;font-size: 10px;&quot;&gt;InventoryRecord i)" style="shape=partialRectangle;html=1;whiteSpace=wrap;connectable=0;fillColor=none;top=0;left=0;bottom=0;right=0;overflow=hidden;fontSize=10;" parent="0jcatp8Q0D0t4g7Fgnds-95" vertex="1">
          <mxGeometry x="290" width="120" height="30" as="geometry" />
        </mxCell>
        <mxCell id="0jcatp8Q0D0t4g7Fgnds-101" value="None" style="shape=partialRectangle;html=1;whiteSpace=wrap;connectable=0;fillColor=none;top=0;left=0;bottom=0;right=0;overflow=hidden;fontSize=10;" parent="0jcatp8Q0D0t4g7Fgnds-95" vertex="1">
          <mxGeometry x="410" width="160" height="30" as="geometry" />
        </mxCell>
        <mxCell id="0jcatp8Q0D0t4g7Fgnds-102" value="None" style="shape=partialRectangle;html=1;whiteSpace=wrap;connectable=0;fillColor=none;top=0;left=0;bottom=0;right=0;overflow=hidden;fontSize=10;" parent="0jcatp8Q0D0t4g7Fgnds-95" vertex="1">
          <mxGeometry x="570" width="90" height="30" as="geometry" />
        </mxCell>
        <mxCell id="0jcatp8Q0D0t4g7Fgnds-61" style="shape=partialRectangle;html=1;whiteSpace=wrap;collapsible=0;dropTarget=0;pointerEvents=0;fillColor=none;top=0;left=0;bottom=0;right=0;points=[[0,0.5],[1,0.5]];portConstraint=eastwest;fontSize=10;" parent="0jcatp8Q0D0t4g7Fgnds-20" vertex="1">
          <mxGeometry y="200" width="660" height="30" as="geometry" />
        </mxCell>
        <mxCell id="0jcatp8Q0D0t4g7Fgnds-62" value="Update" style="shape=partialRectangle;html=1;whiteSpace=wrap;connectable=0;top=0;left=0;bottom=0;right=0;overflow=hidden;strokeWidth=1;perimeterSpacing=0;fillColor=#C9C9C9;fontSize=10;" parent="0jcatp8Q0D0t4g7Fgnds-61" vertex="1">
          <mxGeometry width="90" height="30" as="geometry" />
        </mxCell>
        <mxCell id="0jcatp8Q0D0t4g7Fgnds-63" value="updateUser(&lt;br style=&quot;font-size: 10px;&quot;&gt;User u)" style="shape=partialRectangle;html=1;whiteSpace=wrap;connectable=0;fillColor=none;top=0;left=0;bottom=0;right=0;overflow=hidden;fontSize=10;" parent="0jcatp8Q0D0t4g7Fgnds-61" vertex="1">
          <mxGeometry x="90" width="70" height="30" as="geometry" />
        </mxCell>
        <mxCell id="0jcatp8Q0D0t4g7Fgnds-64" value="updateUnit(&lt;br style=&quot;font-size: 10px;&quot;&gt;OrgUnit u)" style="shape=partialRectangle;html=1;whiteSpace=wrap;connectable=0;fillColor=none;top=0;left=0;bottom=0;right=0;overflow=hidden;fontSize=10;" parent="0jcatp8Q0D0t4g7Fgnds-61" vertex="1">
          <mxGeometry x="160" width="60" height="30" as="geometry" />
        </mxCell>
        <mxCell id="0jcatp8Q0D0t4g7Fgnds-65" value="updateAsset(&lt;br style=&quot;font-size: 10px;&quot;&gt;Asset a)" style="shape=partialRectangle;html=1;whiteSpace=wrap;connectable=0;fillColor=none;top=0;left=0;bottom=0;right=0;overflow=hidden;fontSize=10;" parent="0jcatp8Q0D0t4g7Fgnds-61" vertex="1">
          <mxGeometry x="220" width="70" height="30" as="geometry" />
        </mxCell>
        <mxCell id="0jcatp8Q0D0t4g7Fgnds-66" value="None" style="shape=partialRectangle;html=1;whiteSpace=wrap;connectable=0;fillColor=none;top=0;left=0;bottom=0;right=0;overflow=hidden;fontSize=10;" parent="0jcatp8Q0D0t4g7Fgnds-61" vertex="1">
          <mxGeometry x="290" width="120" height="30" as="geometry" />
        </mxCell>
        <mxCell id="0jcatp8Q0D0t4g7Fgnds-67" value="updateSellOrder(SellOrder s)" style="shape=partialRectangle;html=1;whiteSpace=wrap;connectable=0;fillColor=none;top=0;left=0;bottom=0;right=0;overflow=hidden;fontSize=10;" parent="0jcatp8Q0D0t4g7Fgnds-61" vertex="1">
          <mxGeometry x="410" width="160" height="30" as="geometry" />
        </mxCell>
        <mxCell id="0jcatp8Q0D0t4g7Fgnds-68" value="updateBuyOrder(&lt;br style=&quot;font-size: 10px;&quot;&gt;BuyOrder b)" style="shape=partialRectangle;html=1;whiteSpace=wrap;connectable=0;fillColor=none;top=0;left=0;bottom=0;right=0;overflow=hidden;fontSize=10;" parent="0jcatp8Q0D0t4g7Fgnds-61" vertex="1">
          <mxGeometry x="570" width="90" height="30" as="geometry" />
        </mxCell>
        <mxCell id="0jcatp8Q0D0t4g7Fgnds-53" style="shape=partialRectangle;html=1;whiteSpace=wrap;collapsible=0;dropTarget=0;pointerEvents=0;fillColor=none;top=0;left=0;bottom=0;right=0;points=[[0,0.5],[1,0.5]];portConstraint=eastwest;fontSize=10;" parent="0jcatp8Q0D0t4g7Fgnds-20" vertex="1">
          <mxGeometry y="230" width="660" height="20" as="geometry" />
        </mxCell>
        <mxCell id="0jcatp8Q0D0t4g7Fgnds-54" value="Delete (filter)" style="shape=partialRectangle;html=1;whiteSpace=wrap;connectable=0;top=0;left=0;bottom=0;right=0;overflow=hidden;strokeWidth=1;perimeterSpacing=0;fillColor=#C9C9C9;fontSize=10;" parent="0jcatp8Q0D0t4g7Fgnds-53" vertex="1">
          <mxGeometry width="90" height="20" as="geometry" />
        </mxCell>
        <mxCell id="0jcatp8Q0D0t4g7Fgnds-55" value="None" style="shape=partialRectangle;html=1;whiteSpace=wrap;connectable=0;fillColor=none;top=0;left=0;bottom=0;right=0;overflow=hidden;fontSize=10;" parent="0jcatp8Q0D0t4g7Fgnds-53" vertex="1">
          <mxGeometry x="90" width="70" height="20" as="geometry" />
        </mxCell>
        <mxCell id="0jcatp8Q0D0t4g7Fgnds-56" value="None" style="shape=partialRectangle;html=1;whiteSpace=wrap;connectable=0;fillColor=none;top=0;left=0;bottom=0;right=0;overflow=hidden;fontSize=10;" parent="0jcatp8Q0D0t4g7Fgnds-53" vertex="1">
          <mxGeometry x="160" width="60" height="20" as="geometry" />
        </mxCell>
        <mxCell id="0jcatp8Q0D0t4g7Fgnds-57" value="None" style="shape=partialRectangle;html=1;whiteSpace=wrap;connectable=0;fillColor=none;top=0;left=0;bottom=0;right=0;overflow=hidden;fontSize=10;" parent="0jcatp8Q0D0t4g7Fgnds-53" vertex="1">
          <mxGeometry x="220" width="70" height="20" as="geometry" />
        </mxCell>
        <mxCell id="0jcatp8Q0D0t4g7Fgnds-58" value="deleteInventoryRecord" style="shape=partialRectangle;html=1;whiteSpace=wrap;connectable=0;fillColor=none;top=0;left=0;bottom=0;right=0;overflow=hidden;fontSize=10;" parent="0jcatp8Q0D0t4g7Fgnds-53" vertex="1">
          <mxGeometry x="290" width="120" height="20" as="geometry" />
        </mxCell>
        <mxCell id="0jcatp8Q0D0t4g7Fgnds-59" value="None" style="shape=partialRectangle;html=1;whiteSpace=wrap;connectable=0;fillColor=none;top=0;left=0;bottom=0;right=0;overflow=hidden;fontSize=10;" parent="0jcatp8Q0D0t4g7Fgnds-53" vertex="1">
          <mxGeometry x="410" width="160" height="20" as="geometry" />
        </mxCell>
        <mxCell id="0jcatp8Q0D0t4g7Fgnds-60" value="None" style="shape=partialRectangle;html=1;whiteSpace=wrap;connectable=0;fillColor=none;top=0;left=0;bottom=0;right=0;overflow=hidden;fontSize=10;" parent="0jcatp8Q0D0t4g7Fgnds-53" vertex="1">
          <mxGeometry x="570" width="90" height="20" as="geometry" />
        </mxCell>
        <mxCell id="0jcatp8Q0D0t4g7Fgnds-103" style="shape=partialRectangle;html=1;whiteSpace=wrap;collapsible=0;dropTarget=0;pointerEvents=0;fillColor=none;top=0;left=0;bottom=0;right=0;points=[[0,0.5],[1,0.5]];portConstraint=eastwest;fontSize=10;" parent="0jcatp8Q0D0t4g7Fgnds-20" vertex="1">
          <mxGeometry y="250" width="660" height="30" as="geometry" />
        </mxCell>
        <mxCell id="0jcatp8Q0D0t4g7Fgnds-104" value="Delete (key)" style="shape=partialRectangle;html=1;whiteSpace=wrap;connectable=0;top=0;left=0;bottom=0;right=0;overflow=hidden;strokeWidth=1;perimeterSpacing=0;fillColor=#C9C9C9;fontSize=10;" parent="0jcatp8Q0D0t4g7Fgnds-103" vertex="1">
          <mxGeometry width="90" height="30" as="geometry" />
        </mxCell>
        <mxCell id="0jcatp8Q0D0t4g7Fgnds-105" value="deleteUser(&lt;br style=&quot;font-size: 10px;&quot;&gt;string key)" style="shape=partialRectangle;html=1;whiteSpace=wrap;connectable=0;fillColor=none;top=0;left=0;bottom=0;right=0;overflow=hidden;fontSize=10;" parent="0jcatp8Q0D0t4g7Fgnds-103" vertex="1">
          <mxGeometry x="90" width="70" height="30" as="geometry" />
        </mxCell>
        <mxCell id="0jcatp8Q0D0t4g7Fgnds-106" value="deleteUnit(&lt;br style=&quot;font-size: 10px;&quot;&gt;string key)" style="shape=partialRectangle;html=1;whiteSpace=wrap;connectable=0;fillColor=none;top=0;left=0;bottom=0;right=0;overflow=hidden;fontSize=10;" parent="0jcatp8Q0D0t4g7Fgnds-103" vertex="1">
          <mxGeometry x="160" width="60" height="30" as="geometry" />
        </mxCell>
        <mxCell id="0jcatp8Q0D0t4g7Fgnds-107" value="deleteAsset(&lt;br style=&quot;font-size: 10px;&quot;&gt;int key)" style="shape=partialRectangle;html=1;whiteSpace=wrap;connectable=0;fillColor=none;top=0;left=0;bottom=0;right=0;overflow=hidden;fontSize=10;" parent="0jcatp8Q0D0t4g7Fgnds-103" vertex="1">
          <mxGeometry x="220" width="70" height="30" as="geometry" />
        </mxCell>
        <mxCell id="0jcatp8Q0D0t4g7Fgnds-108" value="None" style="shape=partialRectangle;html=1;whiteSpace=wrap;connectable=0;fillColor=none;top=0;left=0;bottom=0;right=0;overflow=hidden;fontSize=10;" parent="0jcatp8Q0D0t4g7Fgnds-103" vertex="1">
          <mxGeometry x="290" width="120" height="30" as="geometry" />
        </mxCell>
        <mxCell id="0jcatp8Q0D0t4g7Fgnds-109" value="deleteSellOrder(int key)" style="shape=partialRectangle;html=1;whiteSpace=wrap;connectable=0;fillColor=none;top=0;left=0;bottom=0;right=0;overflow=hidden;fontSize=10;" parent="0jcatp8Q0D0t4g7Fgnds-103" vertex="1">
          <mxGeometry x="410" width="160" height="30" as="geometry" />
        </mxCell>
        <mxCell id="0jcatp8Q0D0t4g7Fgnds-110" value="deleteBuyOrder(&lt;br style=&quot;font-size: 10px;&quot;&gt;int key)" style="shape=partialRectangle;html=1;whiteSpace=wrap;connectable=0;fillColor=none;top=0;left=0;bottom=0;right=0;overflow=hidden;fontSize=10;" parent="0jcatp8Q0D0t4g7Fgnds-103" vertex="1">
          <mxGeometry x="570" width="90" height="30" as="geometry" />
        </mxCell>
        <mxCell id="0jcatp8Q0D0t4g7Fgnds-160" style="edgeStyle=orthogonalEdgeStyle;rounded=0;orthogonalLoop=1;jettySize=auto;html=1;endArrow=classic;endFill=1;fontSize=12;" parent="WIyWlLk6GJQsqaUBKTNV-1" source="0jcatp8Q0D0t4g7Fgnds-151" target="0jcatp8Q0D0t4g7Fgnds-156" edge="1">
          <mxGeometry relative="1" as="geometry">
            <Array as="points">
              <mxPoint x="510" y="150" />
            </Array>
          </mxGeometry>
        </mxCell>
        <mxCell id="0jcatp8Q0D0t4g7Fgnds-125" value="NetworkServer" style="swimlane;fontStyle=1;align=center;verticalAlign=top;childLayout=stackLayout;horizontal=1;startSize=26;horizontalStack=0;resizeParent=1;resizeParentMax=0;resizeLast=0;collapsible=1;marginBottom=0;strokeColor=#000000;strokeWidth=1;fillColor=#C9C9C9;html=0;fontSize=12;whiteSpace=wrap;" parent="WIyWlLk6GJQsqaUBKTNV-1" vertex="1">
          <mxGeometry x="310" y="30" width="160" height="300" as="geometry" />
        </mxCell>
        <mxCell id="0jcatp8Q0D0t4g7Fgnds-126" value="- PORT: static final int" style="text;strokeColor=none;fillColor=none;align=left;verticalAlign=top;spacingLeft=4;spacingRight=4;overflow=hidden;rotatable=0;points=[[0,0.5],[1,0.5]];portConstraint=eastwest;fontSize=12;whiteSpace=wrap;" parent="0jcatp8Q0D0t4g7Fgnds-125" vertex="1">
          <mxGeometry y="26" width="160" height="26" as="geometry" />
        </mxCell>
        <mxCell id="0jcatp8Q0D0t4g7Fgnds-149" value="- TIMEOUT: static final int" style="text;strokeColor=none;fillColor=none;align=left;verticalAlign=top;spacingLeft=4;spacingRight=4;overflow=hidden;rotatable=0;points=[[0,0.5],[1,0.5]];portConstraint=eastwest;fontSize=12;whiteSpace=wrap;" parent="0jcatp8Q0D0t4g7Fgnds-125" vertex="1">
          <mxGeometry y="52" width="160" height="26" as="geometry" />
        </mxCell>
        <mxCell id="0jcatp8Q0D0t4g7Fgnds-150" value="- running: AtomicBoolean" style="text;strokeColor=none;fillColor=none;align=left;verticalAlign=top;spacingLeft=4;spacingRight=4;overflow=hidden;rotatable=0;points=[[0,0.5],[1,0.5]];portConstraint=eastwest;fontSize=12;whiteSpace=wrap;" parent="0jcatp8Q0D0t4g7Fgnds-125" vertex="1">
          <mxGeometry y="78" width="160" height="26" as="geometry" />
        </mxCell>
        <mxCell id="0jcatp8Q0D0t4g7Fgnds-151" value="- connection: Connection" style="text;strokeColor=none;fillColor=none;align=left;verticalAlign=top;spacingLeft=4;spacingRight=4;overflow=hidden;rotatable=0;points=[[0,0.5],[1,0.5]];portConstraint=eastwest;fontSize=12;whiteSpace=wrap;" parent="0jcatp8Q0D0t4g7Fgnds-125" vertex="1">
          <mxGeometry y="104" width="160" height="26" as="geometry" />
        </mxCell>
        <mxCell id="0jcatp8Q0D0t4g7Fgnds-127" value="" style="line;strokeWidth=1;fillColor=none;align=left;verticalAlign=middle;spacingTop=-1;spacingLeft=3;spacingRight=3;rotatable=0;labelPosition=right;points=[];portConstraint=eastwest;fontSize=12;whiteSpace=wrap;" parent="0jcatp8Q0D0t4g7Fgnds-125" vertex="1">
          <mxGeometry y="130" width="160" height="8" as="geometry" />
        </mxCell>
        <mxCell id="0jcatp8Q0D0t4g7Fgnds-128" value="+ getPort(): int" style="text;strokeColor=none;fillColor=none;align=left;verticalAlign=top;spacingLeft=4;spacingRight=4;overflow=hidden;rotatable=0;points=[[0,0.5],[1,0.5]];portConstraint=eastwest;fontSize=12;whiteSpace=wrap;" parent="0jcatp8Q0D0t4g7Fgnds-125" vertex="1">
          <mxGeometry y="138" width="160" height="26" as="geometry" />
        </mxCell>
        <mxCell id="0jcatp8Q0D0t4g7Fgnds-152" value="+ shutdown(): void" style="text;strokeColor=none;fillColor=none;align=left;verticalAlign=top;spacingLeft=4;spacingRight=4;overflow=hidden;rotatable=0;points=[[0,0.5],[1,0.5]];portConstraint=eastwest;fontSize=12;whiteSpace=wrap;" parent="0jcatp8Q0D0t4g7Fgnds-125" vertex="1">
          <mxGeometry y="164" width="160" height="26" as="geometry" />
        </mxCell>
        <mxCell id="0jcatp8Q0D0t4g7Fgnds-153" value="- startup(): void" style="text;strokeColor=none;fillColor=none;align=left;verticalAlign=top;spacingLeft=4;spacingRight=4;overflow=hidden;rotatable=0;points=[[0,0.5],[1,0.5]];portConstraint=eastwest;fontSize=12;whiteSpace=wrap;" parent="0jcatp8Q0D0t4g7Fgnds-125" vertex="1">
          <mxGeometry y="190" width="160" height="26" as="geometry" />
        </mxCell>
        <mxCell id="0jcatp8Q0D0t4g7Fgnds-154" value="- handleConnection(): void&#xa;&#xa;This class is where the DataObjects get translated to and from database data" style="text;strokeColor=none;fillColor=none;align=left;verticalAlign=top;spacingLeft=4;spacingRight=4;overflow=hidden;rotatable=0;points=[[0,0.5],[1,0.5]];portConstraint=eastwest;fontSize=12;whiteSpace=wrap;" parent="0jcatp8Q0D0t4g7Fgnds-125" vertex="1">
          <mxGeometry y="216" width="160" height="84" as="geometry" />
        </mxCell>
        <mxCell id="0jcatp8Q0D0t4g7Fgnds-148" style="edgeStyle=orthogonalEdgeStyle;rounded=0;orthogonalLoop=1;jettySize=auto;html=1;exitX=0.75;exitY=0;exitDx=0;exitDy=0;entryX=0;entryY=0.25;entryDx=0;entryDy=0;endArrow=classic;endFill=1;fontSize=12;" parent="WIyWlLk6GJQsqaUBKTNV-1" source="0jcatp8Q0D0t4g7Fgnds-133" target="0jcatp8Q0D0t4g7Fgnds-125" edge="1">
          <mxGeometry relative="1" as="geometry" />
        </mxCell>
        <mxCell id="0jcatp8Q0D0t4g7Fgnds-133" value="DataPacket" style="swimlane;fontStyle=0;childLayout=stackLayout;horizontal=1;startSize=26;fillColor=none;horizontalStack=0;resizeParent=1;resizeParentMax=0;resizeLast=0;collapsible=1;marginBottom=0;strokeColor=#000000;strokeWidth=1;html=0;fontSize=12;whiteSpace=wrap;" parent="WIyWlLk6GJQsqaUBKTNV-1" vertex="1">
          <mxGeometry x="140" y="220" width="150" height="130" as="geometry" />
        </mxCell>
        <mxCell id="0jcatp8Q0D0t4g7Fgnds-134" value="+ table: string" style="text;strokeColor=none;fillColor=none;align=left;verticalAlign=top;spacingLeft=4;spacingRight=4;overflow=hidden;rotatable=0;points=[[0,0.5],[1,0.5]];portConstraint=eastwest;fontSize=12;whiteSpace=wrap;" parent="0jcatp8Q0D0t4g7Fgnds-133" vertex="1">
          <mxGeometry y="26" width="150" height="26" as="geometry" />
        </mxCell>
        <mxCell id="0jcatp8Q0D0t4g7Fgnds-135" value="+ filter: string" style="text;strokeColor=none;fillColor=none;align=left;verticalAlign=top;spacingLeft=4;spacingRight=4;overflow=hidden;rotatable=0;points=[[0,0.5],[1,0.5]];portConstraint=eastwest;fontSize=12;whiteSpace=wrap;" parent="0jcatp8Q0D0t4g7Fgnds-133" vertex="1">
          <mxGeometry y="52" width="150" height="26" as="geometry" />
        </mxCell>
        <mxCell id="0jcatp8Q0D0t4g7Fgnds-136" value="+ object: DataObject" style="text;strokeColor=none;fillColor=none;align=left;verticalAlign=top;spacingLeft=4;spacingRight=4;overflow=hidden;rotatable=0;points=[[0,0.5],[1,0.5]];portConstraint=eastwest;fontSize=12;whiteSpace=wrap;" parent="0jcatp8Q0D0t4g7Fgnds-133" vertex="1">
          <mxGeometry y="78" width="150" height="26" as="geometry" />
        </mxCell>
        <mxCell id="0jcatp8Q0D0t4g7Fgnds-143" value="+ insertTypeFlag: boolean" style="text;strokeColor=none;fillColor=none;align=left;verticalAlign=top;spacingLeft=4;spacingRight=4;overflow=hidden;rotatable=0;points=[[0,0.5],[1,0.5]];portConstraint=eastwest;whiteSpace=wrap;fontSize=12;" parent="0jcatp8Q0D0t4g7Fgnds-133" vertex="1">
          <mxGeometry y="104" width="150" height="26" as="geometry" />
        </mxCell>
        <mxCell id="0jcatp8Q0D0t4g7Fgnds-145" style="edgeStyle=orthogonalEdgeStyle;rounded=0;orthogonalLoop=1;jettySize=auto;html=1;exitX=0;exitY=0.5;exitDx=0;exitDy=0;fontSize=12;" parent="WIyWlLk6GJQsqaUBKTNV-1" source="0jcatp8Q0D0t4g7Fgnds-135" edge="1">
          <mxGeometry relative="1" as="geometry">
            <mxPoint x="120" y="295" as="targetPoint" />
            <Array as="points">
              <mxPoint x="120" y="295" />
            </Array>
          </mxGeometry>
        </mxCell>
        <mxCell id="0jcatp8Q0D0t4g7Fgnds-146" style="rounded=0;orthogonalLoop=1;jettySize=auto;html=1;dashed=1;endArrow=none;endFill=0;fontSize=12;exitX=1;exitY=0.5;exitDx=0;exitDy=0;entryX=0;entryY=0.5;entryDx=0;entryDy=0;" parent="WIyWlLk6GJQsqaUBKTNV-1" source="0jcatp8Q0D0t4g7Fgnds-1" target="0jcatp8Q0D0t4g7Fgnds-126" edge="1">
          <mxGeometry relative="1" as="geometry">
            <mxPoint x="122" y="30" as="sourcePoint" />
            <mxPoint x="370" y="57" as="targetPoint" />
          </mxGeometry>
        </mxCell>
        <mxCell id="0jcatp8Q0D0t4g7Fgnds-156" value="DBConnection" style="swimlane;fontStyle=1;align=center;verticalAlign=top;childLayout=stackLayout;horizontal=1;startSize=26;horizontalStack=0;resizeParent=1;resizeParentMax=0;resizeLast=0;collapsible=1;marginBottom=0;strokeColor=#000000;strokeWidth=1;fillColor=#C9C9C9;html=0;fontSize=12;whiteSpace=wrap;" parent="WIyWlLk6GJQsqaUBKTNV-1" vertex="1">
          <mxGeometry x="470" y="390" width="160" height="92" as="geometry" />
        </mxCell>
        <mxCell id="0jcatp8Q0D0t4g7Fgnds-157" value="- connection: Connection" style="text;strokeColor=none;fillColor=none;align=left;verticalAlign=top;spacingLeft=4;spacingRight=4;overflow=hidden;rotatable=0;points=[[0,0.5],[1,0.5]];portConstraint=eastwest;fontSize=12;whiteSpace=wrap;" parent="0jcatp8Q0D0t4g7Fgnds-156" vertex="1">
          <mxGeometry y="26" width="160" height="26" as="geometry" />
        </mxCell>
        <mxCell id="0jcatp8Q0D0t4g7Fgnds-158" value="" style="line;strokeWidth=1;fillColor=none;align=left;verticalAlign=middle;spacingTop=-1;spacingLeft=3;spacingRight=3;rotatable=0;labelPosition=right;points=[];portConstraint=eastwest;fontSize=12;whiteSpace=wrap;" parent="0jcatp8Q0D0t4g7Fgnds-156" vertex="1">
          <mxGeometry y="52" width="160" height="8" as="geometry" />
        </mxCell>
        <mxCell id="0jcatp8Q0D0t4g7Fgnds-159" value="+getConnection()" style="text;strokeColor=none;fillColor=none;align=left;verticalAlign=top;spacingLeft=4;spacingRight=4;overflow=hidden;rotatable=0;points=[[0,0.5],[1,0.5]];portConstraint=eastwest;fontSize=12;whiteSpace=wrap;" parent="0jcatp8Q0D0t4g7Fgnds-156" vertex="1">
          <mxGeometry y="60" width="160" height="32" as="geometry" />
        </mxCell>
        <mxCell id="0jcatp8Q0D0t4g7Fgnds-250" style="edgeStyle=orthogonalEdgeStyle;rounded=0;orthogonalLoop=1;jettySize=auto;html=1;exitX=0.5;exitY=0;exitDx=0;exitDy=0;entryX=0;entryY=0.034;entryDx=0;entryDy=0;entryPerimeter=0;fontSize=12;endArrow=classic;endFill=1;" parent="WIyWlLk6GJQsqaUBKTNV-1" source="0jcatp8Q0D0t4g7Fgnds-163" target="0jcatp8Q0D0t4g7Fgnds-0" edge="1">
          <mxGeometry relative="1" as="geometry" />
        </mxCell>
        <mxCell id="0jcatp8Q0D0t4g7Fgnds-163" value="TradingAppData" style="swimlane;fontStyle=1;align=center;verticalAlign=top;childLayout=stackLayout;horizontal=1;startSize=26;horizontalStack=0;resizeParent=1;resizeParentMax=0;resizeLast=0;collapsible=1;marginBottom=0;fontSize=12;strokeColor=#000000;strokeWidth=1;fillColor=#C9C9C9;html=0;" parent="WIyWlLk6GJQsqaUBKTNV-1" vertex="1">
          <mxGeometry x="-490" y="134" width="220" height="360" as="geometry" />
        </mxCell>
        <mxCell id="0jcatp8Q0D0t4g7Fgnds-167" value="data: NetworkDataSource" style="text;strokeColor=none;fillColor=none;align=left;verticalAlign=top;spacingLeft=4;spacingRight=4;overflow=hidden;rotatable=0;points=[[0,0.5],[1,0.5]];portConstraint=eastwest;" parent="0jcatp8Q0D0t4g7Fgnds-163" vertex="1">
          <mxGeometry y="26" width="220" height="26" as="geometry" />
        </mxCell>
        <mxCell id="0jcatp8Q0D0t4g7Fgnds-164" value="And several fields of ListModel or similar type with getters, used in TradingAppGUI as the data source parameters when constructing display elements" style="text;strokeColor=none;fillColor=none;align=left;verticalAlign=top;spacingLeft=4;spacingRight=4;overflow=hidden;rotatable=0;points=[[0,0.5],[1,0.5]];portConstraint=eastwest;whiteSpace=wrap;" parent="0jcatp8Q0D0t4g7Fgnds-163" vertex="1">
          <mxGeometry y="52" width="220" height="78" as="geometry" />
        </mxCell>
        <mxCell id="0jcatp8Q0D0t4g7Fgnds-165" value="" style="line;strokeWidth=1;fillColor=none;align=left;verticalAlign=middle;spacingTop=-1;spacingLeft=3;spacingRight=3;rotatable=0;labelPosition=right;points=[];portConstraint=eastwest;" parent="0jcatp8Q0D0t4g7Fgnds-163" vertex="1">
          <mxGeometry y="130" width="220" height="8" as="geometry" />
        </mxCell>
        <mxCell id="0jcatp8Q0D0t4g7Fgnds-166" value="This class&#39;s public methods will be attached to GUI buttons and stuff and will involve calling NetworkDataSoirce methods. They will broadly fall into 3 categories:&#xa;* Void: call a select-calling method and write the result to one of the GUI element data source fields (e.g. call inventoriesByUnit() and write to a ListModel)&#xa;* Non-void: call a select-calling method and return the data for use in validation&#xa;* Int: call an insert, update, or delete-calling method in a specific way, return the result so the GUI can deal with it" style="text;strokeColor=none;fillColor=none;align=left;verticalAlign=top;spacingLeft=4;spacingRight=4;overflow=hidden;rotatable=0;points=[[0,0.5],[1,0.5]];portConstraint=eastwest;whiteSpace=wrap;" parent="0jcatp8Q0D0t4g7Fgnds-163" vertex="1">
          <mxGeometry y="138" width="220" height="222" as="geometry" />
        </mxCell>
        <mxCell id="Zipq2_FpzFxxw_In5oZZ-6" style="edgeStyle=orthogonalEdgeStyle;rounded=0;orthogonalLoop=1;jettySize=auto;html=1;exitX=0;exitY=0.25;exitDx=0;exitDy=0;" parent="WIyWlLk6GJQsqaUBKTNV-1" source="0jcatp8Q0D0t4g7Fgnds-168" target="0jcatp8Q0D0t4g7Fgnds-126" edge="1">
          <mxGeometry relative="1" as="geometry">
            <Array as="points">
              <mxPoint x="480" y="69" />
              <mxPoint x="480" y="69" />
            </Array>
          </mxGeometry>
        </mxCell>
        <mxCell id="0jcatp8Q0D0t4g7Fgnds-168" value="ServerGUI" style="swimlane;fontStyle=1;align=center;verticalAlign=top;childLayout=stackLayout;horizontal=1;startSize=26;horizontalStack=0;resizeParent=1;resizeParentMax=0;resizeLast=0;collapsible=1;marginBottom=0;fontSize=12;strokeColor=#000000;strokeWidth=1;fillColor=#C9C9C9;html=0;" parent="WIyWlLk6GJQsqaUBKTNV-1" vertex="1">
          <mxGeometry x="510" y="48" width="160" height="86" as="geometry" />
        </mxCell>
        <mxCell id="0jcatp8Q0D0t4g7Fgnds-170" value="" style="line;strokeWidth=1;fillColor=none;align=left;verticalAlign=middle;spacingTop=-1;spacingLeft=3;spacingRight=3;rotatable=0;labelPosition=right;points=[];portConstraint=eastwest;" parent="0jcatp8Q0D0t4g7Fgnds-168" vertex="1">
          <mxGeometry y="26" width="160" height="8" as="geometry" />
        </mxCell>
        <mxCell id="0jcatp8Q0D0t4g7Fgnds-171" value="+ main()" style="text;strokeColor=none;fillColor=none;align=left;verticalAlign=top;spacingLeft=4;spacingRight=4;overflow=hidden;rotatable=0;points=[[0,0.5],[1,0.5]];portConstraint=eastwest;" parent="0jcatp8Q0D0t4g7Fgnds-168" vertex="1">
          <mxGeometry y="34" width="160" height="26" as="geometry" />
        </mxCell>
        <mxCell id="0jcatp8Q0D0t4g7Fgnds-173" value="- createAndShowGUI()" style="text;strokeColor=none;fillColor=none;align=left;verticalAlign=top;spacingLeft=4;spacingRight=4;overflow=hidden;rotatable=0;points=[[0,0.5],[1,0.5]];portConstraint=eastwest;" parent="0jcatp8Q0D0t4g7Fgnds-168" vertex="1">
          <mxGeometry y="60" width="160" height="26" as="geometry" />
        </mxCell>
        <mxCell id="0jcatp8Q0D0t4g7Fgnds-184" style="edgeStyle=orthogonalEdgeStyle;rounded=0;orthogonalLoop=1;jettySize=auto;html=1;fontSize=12;endArrow=classic;endFill=1;" parent="WIyWlLk6GJQsqaUBKTNV-1" source="0jcatp8Q0D0t4g7Fgnds-176" target="0jcatp8Q0D0t4g7Fgnds-180" edge="1">
          <mxGeometry relative="1" as="geometry" />
        </mxCell>
        <mxCell id="0jcatp8Q0D0t4g7Fgnds-176" value="Main" style="swimlane;fontStyle=1;align=center;verticalAlign=top;childLayout=stackLayout;horizontal=1;startSize=26;horizontalStack=0;resizeParent=1;resizeParentMax=0;resizeLast=0;collapsible=1;marginBottom=0;fontSize=12;strokeColor=#000000;strokeWidth=1;fillColor=#C9C9C9;html=0;" parent="WIyWlLk6GJQsqaUBKTNV-1" vertex="1">
          <mxGeometry x="-560" y="10" width="160" height="80" as="geometry" />
        </mxCell>
        <mxCell id="0jcatp8Q0D0t4g7Fgnds-178" value="" style="line;strokeWidth=1;fillColor=none;align=left;verticalAlign=middle;spacingTop=-1;spacingLeft=3;spacingRight=3;rotatable=0;labelPosition=right;points=[];portConstraint=eastwest;" parent="0jcatp8Q0D0t4g7Fgnds-176" vertex="1">
          <mxGeometry y="26" width="160" height="8" as="geometry" />
        </mxCell>
        <mxCell id="0jcatp8Q0D0t4g7Fgnds-179" value="+ main(String[] args): void&#xa;This just initialises the GUI" style="text;strokeColor=none;fillColor=none;align=left;verticalAlign=top;spacingLeft=4;spacingRight=4;overflow=hidden;rotatable=0;points=[[0,0.5],[1,0.5]];portConstraint=eastwest;" parent="0jcatp8Q0D0t4g7Fgnds-176" vertex="1">
          <mxGeometry y="34" width="160" height="46" as="geometry" />
        </mxCell>
        <mxCell id="0jcatp8Q0D0t4g7Fgnds-180" value="TradingAppGUI" style="swimlane;fontStyle=1;align=center;verticalAlign=top;childLayout=stackLayout;horizontal=1;startSize=26;horizontalStack=0;resizeParent=1;resizeParentMax=0;resizeLast=0;collapsible=1;marginBottom=0;fontSize=12;strokeColor=#000000;strokeWidth=1;fillColor=#C9C9C9;html=0;" parent="WIyWlLk6GJQsqaUBKTNV-1" vertex="1">
          <mxGeometry x="-750" y="108" width="160" height="230" as="geometry" />
        </mxCell>
        <mxCell id="0jcatp8Q0D0t4g7Fgnds-181" value="data: TradingAppData&#xa;&#xa;And a whole bunch of private GUI element vars" style="text;strokeColor=none;fillColor=none;align=left;verticalAlign=top;spacingLeft=4;spacingRight=4;overflow=hidden;rotatable=0;points=[[0,0.5],[1,0.5]];portConstraint=eastwest;whiteSpace=wrap;" parent="0jcatp8Q0D0t4g7Fgnds-180" vertex="1">
          <mxGeometry y="26" width="160" height="84" as="geometry" />
        </mxCell>
        <mxCell id="0jcatp8Q0D0t4g7Fgnds-182" value="" style="line;strokeWidth=1;fillColor=none;align=left;verticalAlign=middle;spacingTop=-1;spacingLeft=3;spacingRight=3;rotatable=0;labelPosition=right;points=[];portConstraint=eastwest;" parent="0jcatp8Q0D0t4g7Fgnds-180" vertex="1">
          <mxGeometry y="110" width="160" height="8" as="geometry" />
        </mxCell>
        <mxCell id="0jcatp8Q0D0t4g7Fgnds-183" value="+ method(type): type&#xa;This will be a MASSIVE class but I&#39;m not in charge of it, TODO fix this thing" style="text;strokeColor=none;fillColor=none;align=left;verticalAlign=top;spacingLeft=4;spacingRight=4;overflow=hidden;rotatable=0;points=[[0,0.5],[1,0.5]];portConstraint=eastwest;whiteSpace=wrap;" parent="0jcatp8Q0D0t4g7Fgnds-180" vertex="1">
          <mxGeometry y="118" width="160" height="112" as="geometry" />
        </mxCell>
        <mxCell id="0jcatp8Q0D0t4g7Fgnds-185" style="edgeStyle=orthogonalEdgeStyle;rounded=0;orthogonalLoop=1;jettySize=auto;html=1;fontSize=12;endArrow=classic;endFill=1;" parent="WIyWlLk6GJQsqaUBKTNV-1" source="0jcatp8Q0D0t4g7Fgnds-181" edge="1">
          <mxGeometry relative="1" as="geometry">
            <mxPoint x="-490" y="181" as="targetPoint" />
            <Array as="points">
              <mxPoint x="-560" y="181" />
              <mxPoint x="-560" y="181" />
            </Array>
          </mxGeometry>
        </mxCell>
        <mxCell id="0jcatp8Q0D0t4g7Fgnds-249" style="edgeStyle=orthogonalEdgeStyle;rounded=0;orthogonalLoop=1;jettySize=auto;html=1;fontSize=12;endArrow=classic;endFill=1;" parent="WIyWlLk6GJQsqaUBKTNV-1" source="0jcatp8Q0D0t4g7Fgnds-186" target="0jcatp8Q0D0t4g7Fgnds-183" edge="1">
          <mxGeometry relative="1" as="geometry">
            <Array as="points">
              <mxPoint x="-560" y="282" />
            </Array>
          </mxGeometry>
        </mxCell>
        <mxCell id="0jcatp8Q0D0t4g7Fgnds-251" style="edgeStyle=orthogonalEdgeStyle;rounded=0;orthogonalLoop=1;jettySize=auto;html=1;fontSize=12;endArrow=classic;endFill=1;" parent="WIyWlLk6GJQsqaUBKTNV-1" source="0jcatp8Q0D0t4g7Fgnds-186" target="0jcatp8Q0D0t4g7Fgnds-166" edge="1">
          <mxGeometry relative="1" as="geometry" />
        </mxCell>
        <mxCell id="0jcatp8Q0D0t4g7Fgnds-252" style="edgeStyle=orthogonalEdgeStyle;rounded=0;orthogonalLoop=1;jettySize=auto;html=1;fontSize=12;endArrow=classic;endFill=1;" parent="WIyWlLk6GJQsqaUBKTNV-1" source="0jcatp8Q0D0t4g7Fgnds-186" target="0jcatp8Q0D0t4g7Fgnds-14" edge="1">
          <mxGeometry relative="1" as="geometry">
            <Array as="points">
              <mxPoint x="-60" y="570" />
            </Array>
          </mxGeometry>
        </mxCell>
        <mxCell id="0jcatp8Q0D0t4g7Fgnds-186" value="DataObject" style="swimlane;fontStyle=0;childLayout=stackLayout;horizontal=1;startSize=26;fillColor=none;horizontalStack=0;resizeParent=1;resizeParentMax=0;resizeLast=0;collapsible=1;marginBottom=0;fontSize=12;strokeColor=#000000;strokeWidth=1;html=0;" parent="WIyWlLk6GJQsqaUBKTNV-1" vertex="1">
          <mxGeometry x="-580" y="549" width="140" height="150" as="geometry" />
        </mxCell>
        <mxCell id="0jcatp8Q0D0t4g7Fgnds-189" value="No inherent fields or methods, but should be added to the program so that all our data storage classes have a more specific shared superclass than Object" style="text;strokeColor=none;fillColor=none;align=left;verticalAlign=top;spacingLeft=4;spacingRight=4;overflow=hidden;rotatable=0;points=[[0,0.5],[1,0.5]];portConstraint=eastwest;whiteSpace=wrap;" parent="0jcatp8Q0D0t4g7Fgnds-186" vertex="1">
          <mxGeometry y="26" width="140" height="124" as="geometry" />
        </mxCell>
        <mxCell id="0jcatp8Q0D0t4g7Fgnds-230" style="edgeStyle=orthogonalEdgeStyle;rounded=0;orthogonalLoop=1;jettySize=auto;html=1;fontSize=12;endArrow=block;endFill=0;" parent="WIyWlLk6GJQsqaUBKTNV-1" source="0jcatp8Q0D0t4g7Fgnds-194" target="0jcatp8Q0D0t4g7Fgnds-189" edge="1">
          <mxGeometry relative="1" as="geometry">
            <mxPoint x="-650" y="688" as="targetPoint" />
            <Array as="points">
              <mxPoint x="-720" y="750" />
              <mxPoint x="-500" y="750" />
            </Array>
          </mxGeometry>
        </mxCell>
        <mxCell id="0jcatp8Q0D0t4g7Fgnds-194" value="OrgUnit" style="swimlane;fontStyle=0;childLayout=stackLayout;horizontal=1;startSize=26;fillColor=none;horizontalStack=0;resizeParent=1;resizeParentMax=0;resizeLast=0;collapsible=1;marginBottom=0;fontSize=12;strokeColor=#000000;strokeWidth=1;html=0;" parent="WIyWlLk6GJQsqaUBKTNV-1" vertex="1">
          <mxGeometry x="-790" y="770" width="140" height="78" as="geometry" />
        </mxCell>
        <mxCell id="0jcatp8Q0D0t4g7Fgnds-195" value="+ name: string" style="text;strokeColor=none;fillColor=none;align=left;verticalAlign=top;spacingLeft=4;spacingRight=4;overflow=hidden;rotatable=0;points=[[0,0.5],[1,0.5]];portConstraint=eastwest;" parent="0jcatp8Q0D0t4g7Fgnds-194" vertex="1">
          <mxGeometry y="26" width="140" height="26" as="geometry" />
        </mxCell>
        <mxCell id="0jcatp8Q0D0t4g7Fgnds-196" value="+ credits: int" style="text;strokeColor=none;fillColor=none;align=left;verticalAlign=top;spacingLeft=4;spacingRight=4;overflow=hidden;rotatable=0;points=[[0,0.5],[1,0.5]];portConstraint=eastwest;" parent="0jcatp8Q0D0t4g7Fgnds-194" vertex="1">
          <mxGeometry y="52" width="140" height="26" as="geometry" />
        </mxCell>
        <mxCell id="0jcatp8Q0D0t4g7Fgnds-273" style="edgeStyle=orthogonalEdgeStyle;rounded=0;orthogonalLoop=1;jettySize=auto;html=1;fontSize=12;endArrow=block;endFill=0;" parent="WIyWlLk6GJQsqaUBKTNV-1" source="0jcatp8Q0D0t4g7Fgnds-198" target="0jcatp8Q0D0t4g7Fgnds-189" edge="1">
          <mxGeometry relative="1" as="geometry">
            <Array as="points">
              <mxPoint x="-630" y="750" />
              <mxPoint x="-500" y="750" />
            </Array>
          </mxGeometry>
        </mxCell>
        <mxCell id="0jcatp8Q0D0t4g7Fgnds-198" value="Asset" style="swimlane;fontStyle=0;childLayout=stackLayout;horizontal=1;startSize=26;fillColor=none;horizontalStack=0;resizeParent=1;resizeParentMax=0;resizeLast=0;collapsible=1;marginBottom=0;fontSize=12;strokeColor=#000000;strokeWidth=1;html=0;" parent="WIyWlLk6GJQsqaUBKTNV-1" vertex="1">
          <mxGeometry x="-710" y="870" width="140" height="104" as="geometry" />
        </mxCell>
        <mxCell id="0jcatp8Q0D0t4g7Fgnds-199" value="+ id: int" style="text;strokeColor=none;fillColor=none;align=left;verticalAlign=top;spacingLeft=4;spacingRight=4;overflow=hidden;rotatable=0;points=[[0,0.5],[1,0.5]];portConstraint=eastwest;" parent="0jcatp8Q0D0t4g7Fgnds-198" vertex="1">
          <mxGeometry y="26" width="140" height="26" as="geometry" />
        </mxCell>
        <mxCell id="0jcatp8Q0D0t4g7Fgnds-200" value="+ description: string&#xa;" style="text;strokeColor=none;fillColor=none;align=left;verticalAlign=top;spacingLeft=4;spacingRight=4;overflow=hidden;rotatable=0;points=[[0,0.5],[1,0.5]];portConstraint=eastwest;" parent="0jcatp8Q0D0t4g7Fgnds-198" vertex="1">
          <mxGeometry y="52" width="140" height="26" as="geometry" />
        </mxCell>
        <mxCell id="0jcatp8Q0D0t4g7Fgnds-201" value="+ field: type" style="text;strokeColor=none;fillColor=none;align=left;verticalAlign=top;spacingLeft=4;spacingRight=4;overflow=hidden;rotatable=0;points=[[0,0.5],[1,0.5]];portConstraint=eastwest;" parent="0jcatp8Q0D0t4g7Fgnds-198" vertex="1">
          <mxGeometry y="78" width="140" height="26" as="geometry" />
        </mxCell>
        <mxCell id="0jcatp8Q0D0t4g7Fgnds-202" value="InventoryRecord" style="swimlane;fontStyle=0;childLayout=stackLayout;horizontal=1;startSize=26;fillColor=none;horizontalStack=0;resizeParent=1;resizeParentMax=0;resizeLast=0;collapsible=1;marginBottom=0;fontSize=12;strokeColor=#000000;strokeWidth=1;html=0;" parent="WIyWlLk6GJQsqaUBKTNV-1" vertex="1">
          <mxGeometry x="-380" y="610" width="140" height="104" as="geometry" />
        </mxCell>
        <mxCell id="0jcatp8Q0D0t4g7Fgnds-203" value="+ unit: string" style="text;strokeColor=none;fillColor=none;align=left;verticalAlign=top;spacingLeft=4;spacingRight=4;overflow=hidden;rotatable=0;points=[[0,0.5],[1,0.5]];portConstraint=eastwest;" parent="0jcatp8Q0D0t4g7Fgnds-202" vertex="1">
          <mxGeometry y="26" width="140" height="26" as="geometry" />
        </mxCell>
        <mxCell id="TjsUoOhzDHoWTj6jHsm3-0" value="+ asset: int" style="text;strokeColor=none;fillColor=none;align=left;verticalAlign=top;spacingLeft=4;spacingRight=4;overflow=hidden;rotatable=0;points=[[0,0.5],[1,0.5]];portConstraint=eastwest;" vertex="1" parent="0jcatp8Q0D0t4g7Fgnds-202">
          <mxGeometry y="52" width="140" height="26" as="geometry" />
        </mxCell>
        <mxCell id="0jcatp8Q0D0t4g7Fgnds-205" value="+ quantity: int" style="text;strokeColor=none;fillColor=none;align=left;verticalAlign=top;spacingLeft=4;spacingRight=4;overflow=hidden;rotatable=0;points=[[0,0.5],[1,0.5]];portConstraint=eastwest;" parent="0jcatp8Q0D0t4g7Fgnds-202" vertex="1">
          <mxGeometry y="78" width="140" height="26" as="geometry" />
        </mxCell>
        <mxCell id="0jcatp8Q0D0t4g7Fgnds-270" style="edgeStyle=orthogonalEdgeStyle;rounded=0;orthogonalLoop=1;jettySize=auto;html=1;fontSize=12;endArrow=block;endFill=0;" parent="WIyWlLk6GJQsqaUBKTNV-1" source="0jcatp8Q0D0t4g7Fgnds-206" target="0jcatp8Q0D0t4g7Fgnds-189" edge="1">
          <mxGeometry relative="1" as="geometry">
            <Array as="points">
              <mxPoint x="-500" y="770" />
              <mxPoint x="-500" y="770" />
            </Array>
          </mxGeometry>
        </mxCell>
        <mxCell id="0jcatp8Q0D0t4g7Fgnds-206" value="Order" style="swimlane;fontStyle=0;childLayout=stackLayout;horizontal=1;startSize=26;fillColor=none;horizontalStack=0;resizeParent=1;resizeParentMax=0;resizeLast=0;collapsible=1;marginBottom=0;fontSize=12;strokeColor=#000000;strokeWidth=1;html=0;" parent="WIyWlLk6GJQsqaUBKTNV-1" vertex="1">
          <mxGeometry x="-560" y="780" width="140" height="208" as="geometry" />
        </mxCell>
        <mxCell id="0jcatp8Q0D0t4g7Fgnds-232" value="+ id: int" style="text;strokeColor=none;fillColor=none;align=left;verticalAlign=top;spacingLeft=4;spacingRight=4;overflow=hidden;rotatable=0;points=[[0,0.5],[1,0.5]];portConstraint=eastwest;" parent="0jcatp8Q0D0t4g7Fgnds-206" vertex="1">
          <mxGeometry y="26" width="140" height="26" as="geometry" />
        </mxCell>
        <mxCell id="0jcatp8Q0D0t4g7Fgnds-207" value="+ user: string" style="text;strokeColor=none;fillColor=none;align=left;verticalAlign=top;spacingLeft=4;spacingRight=4;overflow=hidden;rotatable=0;points=[[0,0.5],[1,0.5]];portConstraint=eastwest;" parent="0jcatp8Q0D0t4g7Fgnds-206" vertex="1">
          <mxGeometry y="52" width="140" height="26" as="geometry" />
        </mxCell>
        <mxCell id="0jcatp8Q0D0t4g7Fgnds-208" value="+ asset: int" style="text;strokeColor=none;fillColor=none;align=left;verticalAlign=top;spacingLeft=4;spacingRight=4;overflow=hidden;rotatable=0;points=[[0,0.5],[1,0.5]];portConstraint=eastwest;" parent="0jcatp8Q0D0t4g7Fgnds-206" vertex="1">
          <mxGeometry y="78" width="140" height="26" as="geometry" />
        </mxCell>
        <mxCell id="0jcatp8Q0D0t4g7Fgnds-213" value="+ dateplaced: datetime" style="text;strokeColor=none;fillColor=none;align=left;verticalAlign=top;spacingLeft=4;spacingRight=4;overflow=hidden;rotatable=0;points=[[0,0.5],[1,0.5]];portConstraint=eastwest;" parent="0jcatp8Q0D0t4g7Fgnds-206" vertex="1">
          <mxGeometry y="104" width="140" height="26" as="geometry" />
        </mxCell>
        <mxCell id="0jcatp8Q0D0t4g7Fgnds-212" value="+ dateresolved: datetime" style="text;strokeColor=none;fillColor=none;align=left;verticalAlign=top;spacingLeft=4;spacingRight=4;overflow=hidden;rotatable=0;points=[[0,0.5],[1,0.5]];portConstraint=eastwest;" parent="0jcatp8Q0D0t4g7Fgnds-206" vertex="1">
          <mxGeometry y="130" width="140" height="26" as="geometry" />
        </mxCell>
        <mxCell id="0jcatp8Q0D0t4g7Fgnds-211" value="+ quantity: int" style="text;strokeColor=none;fillColor=none;align=left;verticalAlign=top;spacingLeft=4;spacingRight=4;overflow=hidden;rotatable=0;points=[[0,0.5],[1,0.5]];portConstraint=eastwest;" parent="0jcatp8Q0D0t4g7Fgnds-206" vertex="1">
          <mxGeometry y="156" width="140" height="26" as="geometry" />
        </mxCell>
        <mxCell id="0jcatp8Q0D0t4g7Fgnds-209" value="+ price_each: int" style="text;strokeColor=none;fillColor=none;align=left;verticalAlign=top;spacingLeft=4;spacingRight=4;overflow=hidden;rotatable=0;points=[[0,0.5],[1,0.5]];portConstraint=eastwest;" parent="0jcatp8Q0D0t4g7Fgnds-206" vertex="1">
          <mxGeometry y="182" width="140" height="26" as="geometry" />
        </mxCell>
        <mxCell id="0jcatp8Q0D0t4g7Fgnds-229" style="edgeStyle=orthogonalEdgeStyle;rounded=0;orthogonalLoop=1;jettySize=auto;html=1;fontSize=12;endArrow=block;endFill=0;" parent="WIyWlLk6GJQsqaUBKTNV-1" target="0jcatp8Q0D0t4g7Fgnds-209" edge="1">
          <mxGeometry relative="1" as="geometry">
            <mxPoint x="-620" y="897" as="targetPoint" />
            <Array as="points">
              <mxPoint x="-441" y="1010" />
              <mxPoint x="-500" y="1010" />
            </Array>
            <mxPoint x="-441" y="1030" as="sourcePoint" />
          </mxGeometry>
        </mxCell>
        <mxCell id="0jcatp8Q0D0t4g7Fgnds-215" value="SellOrder" style="swimlane;fontStyle=0;childLayout=stackLayout;horizontal=1;startSize=26;fillColor=none;horizontalStack=0;resizeParent=1;resizeParentMax=0;resizeLast=0;collapsible=1;marginBottom=0;fontSize=12;strokeColor=#000000;strokeWidth=1;html=0;" parent="WIyWlLk6GJQsqaUBKTNV-1" vertex="1">
          <mxGeometry x="-500" y="1030" width="140" height="52" as="geometry" />
        </mxCell>
        <mxCell id="0jcatp8Q0D0t4g7Fgnds-225" style="edgeStyle=orthogonalEdgeStyle;rounded=0;orthogonalLoop=1;jettySize=auto;html=1;fontSize=12;endArrow=block;endFill=0;" parent="WIyWlLk6GJQsqaUBKTNV-1" source="0jcatp8Q0D0t4g7Fgnds-221" target="0jcatp8Q0D0t4g7Fgnds-209" edge="1">
          <mxGeometry relative="1" as="geometry">
            <mxPoint x="-765" y="937" as="targetPoint" />
            <Array as="points">
              <mxPoint x="-570" y="1010" />
              <mxPoint x="-500" y="1010" />
            </Array>
          </mxGeometry>
        </mxCell>
        <mxCell id="0jcatp8Q0D0t4g7Fgnds-221" value="BuyOrder" style="swimlane;fontStyle=0;childLayout=stackLayout;horizontal=1;startSize=26;fillColor=none;horizontalStack=0;resizeParent=1;resizeParentMax=0;resizeLast=0;collapsible=1;marginBottom=0;fontSize=12;strokeColor=#000000;strokeWidth=1;html=0;" parent="WIyWlLk6GJQsqaUBKTNV-1" vertex="1">
          <mxGeometry x="-650" y="1030" width="140" height="52" as="geometry" />
        </mxCell>
        <mxCell id="0jcatp8Q0D0t4g7Fgnds-224" value="+ bought_from: int" style="text;strokeColor=none;fillColor=none;align=left;verticalAlign=top;spacingLeft=4;spacingRight=4;overflow=hidden;rotatable=0;points=[[0,0.5],[1,0.5]];portConstraint=eastwest;" parent="0jcatp8Q0D0t4g7Fgnds-221" vertex="1">
          <mxGeometry y="26" width="140" height="26" as="geometry" />
        </mxCell>
        <mxCell id="0jcatp8Q0D0t4g7Fgnds-275" style="edgeStyle=orthogonalEdgeStyle;rounded=0;orthogonalLoop=1;jettySize=auto;html=1;exitX=0.076;exitY=0.006;exitDx=0;exitDy=0;fontSize=12;endArrow=block;endFill=0;exitPerimeter=0;" parent="WIyWlLk6GJQsqaUBKTNV-1" source="0jcatp8Q0D0t4g7Fgnds-237" edge="1">
          <mxGeometry relative="1" as="geometry">
            <Array as="points">
              <mxPoint x="-390" y="841" />
              <mxPoint x="-390" y="770" />
              <mxPoint x="-500" y="770" />
            </Array>
            <mxPoint x="-500" y="699" as="targetPoint" />
          </mxGeometry>
        </mxCell>
        <mxCell id="0jcatp8Q0D0t4g7Fgnds-237" value="User" style="swimlane;fontStyle=1;align=center;verticalAlign=top;childLayout=stackLayout;horizontal=1;startSize=26;horizontalStack=0;resizeParent=1;resizeParentMax=0;resizeLast=0;collapsible=1;marginBottom=0;fontSize=12;strokeColor=#000000;strokeWidth=1;fillColor=#C9C9C9;html=0;" parent="WIyWlLk6GJQsqaUBKTNV-1" vertex="1">
          <mxGeometry x="-400" y="827" width="160" height="190" as="geometry" />
        </mxCell>
        <mxCell id="0jcatp8Q0D0t4g7Fgnds-238" value="+name: string" style="text;strokeColor=none;fillColor=none;align=left;verticalAlign=top;spacingLeft=4;spacingRight=4;overflow=hidden;rotatable=0;points=[[0,0.5],[1,0.5]];portConstraint=eastwest;" parent="0jcatp8Q0D0t4g7Fgnds-237" vertex="1">
          <mxGeometry y="26" width="160" height="26" as="geometry" />
        </mxCell>
        <mxCell id="0jcatp8Q0D0t4g7Fgnds-243" value="+adminaccess: bool" style="text;strokeColor=none;fillColor=none;align=left;verticalAlign=top;spacingLeft=4;spacingRight=4;overflow=hidden;rotatable=0;points=[[0,0.5],[1,0.5]];portConstraint=eastwest;" parent="0jcatp8Q0D0t4g7Fgnds-237" vertex="1">
          <mxGeometry y="52" width="160" height="26" as="geometry" />
        </mxCell>
        <mxCell id="0jcatp8Q0D0t4g7Fgnds-244" value="-salt: string" style="text;strokeColor=none;fillColor=none;align=left;verticalAlign=top;spacingLeft=4;spacingRight=4;overflow=hidden;rotatable=0;points=[[0,0.5],[1,0.5]];portConstraint=eastwest;" parent="0jcatp8Q0D0t4g7Fgnds-237" vertex="1">
          <mxGeometry y="78" width="160" height="26" as="geometry" />
        </mxCell>
        <mxCell id="0jcatp8Q0D0t4g7Fgnds-245" value="-password: string" style="text;strokeColor=none;fillColor=none;align=left;verticalAlign=top;spacingLeft=4;spacingRight=4;overflow=hidden;rotatable=0;points=[[0,0.5],[1,0.5]];portConstraint=eastwest;" parent="0jcatp8Q0D0t4g7Fgnds-237" vertex="1">
          <mxGeometry y="104" width="160" height="26" as="geometry" />
        </mxCell>
        <mxCell id="0jcatp8Q0D0t4g7Fgnds-239" value="" style="line;strokeWidth=1;fillColor=none;align=left;verticalAlign=middle;spacingTop=-1;spacingLeft=3;spacingRight=3;rotatable=0;labelPosition=right;points=[];portConstraint=eastwest;" parent="0jcatp8Q0D0t4g7Fgnds-237" vertex="1">
          <mxGeometry y="130" width="160" height="8" as="geometry" />
        </mxCell>
        <mxCell id="0jcatp8Q0D0t4g7Fgnds-240" value="TODO: CONSTRUCTION AND MODIFICATION HELPER METHODS HERE" style="text;strokeColor=none;fillColor=none;align=left;verticalAlign=top;spacingLeft=4;spacingRight=4;overflow=hidden;rotatable=0;points=[[0,0.5],[1,0.5]];portConstraint=eastwest;whiteSpace=wrap;" parent="0jcatp8Q0D0t4g7Fgnds-237" vertex="1">
          <mxGeometry y="138" width="160" height="52" as="geometry" />
        </mxCell>
        <mxCell id="0jcatp8Q0D0t4g7Fgnds-254" style="edgeStyle=orthogonalEdgeStyle;rounded=0;orthogonalLoop=1;jettySize=auto;html=1;fontSize=12;endArrow=classic;endFill=1;" parent="WIyWlLk6GJQsqaUBKTNV-1" source="0jcatp8Q0D0t4g7Fgnds-189" target="0jcatp8Q0D0t4g7Fgnds-143" edge="1">
          <mxGeometry relative="1" as="geometry">
            <Array as="points">
              <mxPoint x="275" y="580" />
            </Array>
            <mxPoint x="275" y="510" as="targetPoint" />
          </mxGeometry>
        </mxCell>
        <mxCell id="0jcatp8Q0D0t4g7Fgnds-255" style="edgeStyle=orthogonalEdgeStyle;rounded=0;orthogonalLoop=1;jettySize=auto;html=1;fontSize=12;endArrow=classic;endFill=1;" parent="WIyWlLk6GJQsqaUBKTNV-1" source="0jcatp8Q0D0t4g7Fgnds-189" target="0jcatp8Q0D0t4g7Fgnds-154" edge="1">
          <mxGeometry relative="1" as="geometry">
            <Array as="points">
              <mxPoint x="330" y="590" />
            </Array>
          </mxGeometry>
        </mxCell>
        <mxCell id="0jcatp8Q0D0t4g7Fgnds-277" style="edgeStyle=orthogonalEdgeStyle;rounded=0;orthogonalLoop=1;jettySize=auto;html=1;fontSize=12;endArrow=block;endFill=0;" parent="WIyWlLk6GJQsqaUBKTNV-1" source="0jcatp8Q0D0t4g7Fgnds-202" target="0jcatp8Q0D0t4g7Fgnds-189" edge="1">
          <mxGeometry relative="1" as="geometry">
            <mxPoint x="-440.0000000000002" y="720" as="targetPoint" />
            <mxPoint x="-380" y="688" as="sourcePoint" />
            <Array as="points">
              <mxPoint x="-420" y="649" />
              <mxPoint x="-420" y="649" />
            </Array>
          </mxGeometry>
        </mxCell>
      </root>
    </mxGraphModel>
  </diagram>
</mxfile>
